<?xml version="1.0" encoding="utf-8"?>
<!-- Generator: Adobe Illustrator 17.0.0, SVG Export Plug-In . SVG Version: 6.00 Build 0)  -->
<!DOCTYPE svg PUBLIC "-//W3C//DTD SVG 1.1//EN" "http://www.w3.org/Graphics/SVG/1.1/DTD/svg11.dtd">
<svg version="1.1" class="skill-circle" data-percentage="80" xmlns="http://www.w3.org/2000/svg" xmlns:xlink="http://www.w3.org/1999/xlink" x="0px" y="0px"
	 width="110px" height="110.004px" viewBox="0 0 110 110.004" enable-background="new 0 0 110 110.004"
	 xml:space="preserve">
<path class="1" d="M71.016,8.798c4.053,0,4.053-6.272,0-6.272S66.963,8.798,71.016,8.798z" fill="#111111"/>
<path class="2" d="M85.507,16.152c4.053,0,4.053-6.272,0-6.272S81.454,16.152,85.507,16.152z" fill="#111111"/>
<path class="3" d="M97.012,27.617c4.053,0,4.053-6.273,0-6.273S92.959,27.617,97.012,27.617z" fill="#111111"/>
<path class="4" d="M104.404,42.069c4.053,0,4.053-6.272,0-6.272S100.352,42.069,104.404,42.069z" fill="#111111"/>
<path class="5" d="M106.961,51.821c-4.053,0-4.053,6.273,0,6.273C111.015,58.095,111.015,51.821,106.961,51.821z" fill="#111111"/>
<path class="6" d="M104.432,67.851c-4.053,0-4.053,6.273,0,6.273S108.484,67.851,104.432,67.851z" fill="#111111"/>
<path class="7" d="M97.064,82.315c-4.053,0-4.053,6.273,0,6.273S101.117,82.315,97.064,82.315z" fill="#111111"/>
<path class="8" d="M85.578,93.799c-4.053,0-4.053,6.273,0,6.273S89.631,93.799,85.578,93.799z" fill="#111111"/>
<path class="9" d="M71.1,101.179c-4.053,0-4.053,6.272,0,6.272S75.152,101.179,71.1,101.179z" fill="#111111"/>
<path class="10" d="M55.045,103.73c-4.053,0-4.053,6.273,0,6.273S59.098,103.73,55.045,103.73z" fill="#111111"/>
<path class="11" d="M38.985,101.206c-4.053,0-4.053,6.272,0,6.272S43.038,101.206,38.985,101.206z" fill="#111111"/>
<path class="12" d="M24.495,93.852c-4.053,0-4.053,6.273,0,6.273S28.547,93.852,24.495,93.852z" fill="#111111"/>
<path class="13" d="M12.989,82.387c-4.053,0-4.053,6.272,0,6.272S17.042,82.387,12.989,82.387z" fill="#111111"/>
<path class="14" d="M5.597,67.935c-4.053,0-4.053,6.273,0,6.273S9.649,67.935,5.597,67.935z" fill="#111111"/>
<path class="15" d="M3.04,51.909c-4.053,0-4.053,6.273,0,6.273S7.092,51.909,3.04,51.909z" fill="#111111"/>
<path class="16" d="M5.569,42.153c4.053,0,4.053-6.273,0-6.273S1.517,42.153,5.569,42.153z" fill="#111111"/>
<path class="17" d="M12.937,27.688c4.053,0,4.053-6.273,0-6.273S8.884,27.688,12.937,27.688z" fill="#111111"/>
<path class="18" d="M24.423,16.205c4.053,0,4.053-6.273,0-6.273S20.37,16.205,24.423,16.205z" fill="#111111"/>
<path class="19" d="M38.901,8.825c4.053,0,4.053-6.272,0-6.272S34.849,8.825,38.901,8.825z" fill="#111111"/>
<path class="20" d="M54.957,6.273c4.053,0,4.053-6.273,0-6.273S50.904,6.273,54.957,6.273z" fill="#111111"/>
</svg>
