<?xml version="1.0" encoding="utf-8"?>
<!-- Generated by IcoMoon.io -->
<!DOCTYPE svg PUBLIC "-//W3C//DTD SVG 1.1//EN" "http://www.w3.org/Graphics/SVG/1.1/DTD/svg11.dtd">
<svg version="1.1" xmlns="http://www.w3.org/2000/svg" xmlns:xlink="http://www.w3.org/1999/xlink" width="100%" viewBox="0 0 50 50">
<g id="icomoon-ignore">
	<line stroke-width="1" x1="" y1="" x2="" y2="" stroke="#449FDB" opacity=""></line>
</g>
	<path d="M21.788 16.325c-0.421-0.306-0.905-0.467-1.452-0.485-0.724 0.018-1.327 0.31-1.806 0.879-0.405 0.594-0.598 1.259-0.581 1.994 0 0.969 0.283 1.979 0.848 3.029 0.273 0.49 0.627 0.905 1.060 1.246s0.928 0.512 1.485 0.512c0.704-0.027 1.29-0.28 1.758-0.761 0.226-0.34 0.371-0.69 0.436-1.049 0.038-0.358 0.058-0.659 0.058-0.905 0-1.057-0.27-2.123-0.808-3.2-0.253-0.515-0.585-0.934-0.998-1.258z" fill="#65737d"></path>
	<path d="M21.61 27.788c-0.137-0.017-0.485 0-1.046 0.052-0.553 0.077-1.119 0.205-1.697 0.379-0.136 0.052-0.328 0.131-0.575 0.236-0.247 0.114-0.497 0.275-0.752 0.485-0.247 0.217-0.456 0.488-0.625 0.811-0.196 0.341-0.294 0.75-0.294 1.231 0 0.942 0.425 1.718 1.276 2.329 0.808 0.611 1.913 0.925 3.317 0.943 1.259-0.018 2.221-0.297 2.883-0.838 0.646-0.532 0.97-1.217 0.97-2.054 0-0.681-0.221-1.275-0.663-1.781-0.469-0.479-1.2-1.069-2.196-1.767-0.17-0.017-0.369-0.026-0.599-0.026z" fill="#65737d"></path>
	<path d="M25 0.144l-24.855 24.856 24.855 24.856 24.856-24.856-24.856-24.856zM24.602 16.167c0.201 0.21 0.398 0.677 0.592 0.981 0.184 0.288 0.348 0.629 0.49 1.021 0.117 0.392 0.176 0.85 0.176 1.374-0.016 0.96-0.227 1.728-0.633 2.302-0.199 0.279-0.41 0.537-0.633 0.773-0.246 0.236-0.509 0.475-0.788 0.719-0.159 0.166-0.306 0.354-0.442 0.562-0.158 0.219-0.238 0.471-0.238 0.76 0 0.279 0.081 0.51 0.245 0.694 0.138 0.175 0.273 0.327 0.404 0.458l0.906 0.746c0.563 0.462 1.057 0.973 1.481 1.531 0.4 0.567 0.609 1.308 0.625 2.225 0 1.3-0.571 2.451-1.715 3.454-1.185 1.038-2.896 1.575-5.132 1.61-1.871-0.017-3.269-0.418-4.191-1.202-0.932-0.731-1.398-1.606-1.398-2.625 0-0.496 0.152-1.050 0.454-1.658 0.294-0.61 0.827-1.146 1.598-1.607 0.865-0.496 1.775-0.827 2.726-0.993 0.943-0.138 1.727-0.217 2.35-0.235-0.192-0.254-0.365-0.527-0.514-0.816-0.177-0.281-0.264-0.619-0.264-1.014 0-0.237 0.033-0.436 0.1-0.594 0.059-0.167 0.113-0.323 0.164-0.465-0.304 0.035-0.59 0.046-0.859 0.046-1.422-0.017-2.506-0.481-3.252-1.363-0.781-0.819-1.171-1.804-1.171-2.894 0-1.317 0.552-2.567 1.658-3.64 0.76-0.628 1.549-1.152 2.367-1.343 0.809-0.167 1.569-0.475 2.277-0.475h5.344l-1.65 1h-1.648c0.167 0 0.356 0.466 0.567 0.667zM32.5 25v2.5h-1v-2.5h-3.5v-1.5h3.5v-3h1v3h3v1.5h-3z" fill="#65737d"></path>
</svg>
