<?xml version="1.0" encoding="utf-8"?>
<!-- Generator: Adobe Illustrator 17.0.0, SVG Export Plug-In . SVG Version: 6.00 Build 0)  -->
<!DOCTYPE svg PUBLIC "-//W3C//DTD SVG 1.1//EN" "http://www.w3.org/Graphics/SVG/1.1/DTD/svg11.dtd">
<svg version="1.1" id="Layer_1" xmlns="http://www.w3.org/2000/svg" xmlns:xlink="http://www.w3.org/1999/xlink" x="0px" y="0px"
	 width="100px" height="100px" viewBox="0 0 100 100" enable-background="new 0 0 100 100" xml:space="preserve">
<path d="M84.015,43.785c-1.953,1.953-5.118,1.953-7.071,0L55,21.842V90.25c0,2.762-2.239,5-5,5s-5-2.238-5-5V21.801L23.515,43.285
	c-1.953,1.953-5.118,1.953-7.071,0c-1.953-1.952-1.953-5.118,0-7.07l30-30C47.42,5.238,48.7,4.75,49.979,4.75
	s2.559,0.488,3.536,1.465l30.5,30.5C85.968,38.667,85.968,41.833,84.015,43.785z"/>
</svg>
