<?xml version="1.0" encoding="utf-8"?>
<!-- Generator: Adobe Illustrator 17.0.0, SVG Export Plug-In . SVG Version: 6.00 Build 0)  -->
<!DOCTYPE svg PUBLIC "-//W3C//DTD SVG 1.1//EN" "http://www.w3.org/Graphics/SVG/1.1/DTD/svg11.dtd">
<svg version="1.1" id="Layer_1" xmlns="http://www.w3.org/2000/svg" xmlns:xlink="http://www.w3.org/1999/xlink" x="0px" y="0px"
	 width="100px" height="100px" viewBox="0 0 100 100" enable-background="new 0 0 100 100" xml:space="preserve">
<g>
	<path d="M86.726,19.232l-5.242-5.243c-0.781-0.781-2.047-0.781-2.828,0l-4.343,4.342c-0.94-0.559-1.994-0.859-3.055-0.859
		c-1.535,0-3.071,0.586-4.242,1.757L50.302,35.944l-20.3-20.299c-1.171-1.171-2.707-1.757-4.242-1.757
		c-1.536,0-3.071,0.585-4.242,1.757l-7.071,7.071c-1.126,1.125-1.758,2.651-1.758,4.243c0,1.591,0.632,3.118,1.758,4.243
		L34.745,51.5L21.518,64.729c-0.659,0.658-1.155,1.461-1.45,2.345L16.532,77.68c-0.719,2.156-0.157,4.533,1.45,6.14
		c1.144,1.144,2.677,1.758,4.243,1.758c0.635,0,1.274-0.101,1.896-0.308l10.606-3.535c0.884-0.295,1.687-0.791,2.345-1.45
		l13.229-13.228l13.643,13.642c0.658,0.659,1.461,1.155,2.345,1.45l10.606,3.535c0.622,0.207,1.262,0.308,1.897,0.308
		c1.566,0,3.1-0.613,4.243-1.758c1.607-1.606,2.169-3.983,1.45-6.14L80.95,67.487c-0.295-0.884-0.791-1.687-1.45-2.345L65.858,51.5
		l16.713-16.713c2.344-2.343,2.344-6.142,0-8.485l-0.043-0.043l4.197-4.198C87.507,21.28,87.507,20.013,86.726,19.232z
		 M80.069,18.232l2.414,2.414l-2.121,2.121l-2.415-2.414L80.069,18.232z M71.722,70.093C71.722,70.092,71.722,70.092,71.722,70.093
		L34.124,32.494l2.121-2.122l37.599,37.599L71.722,70.093z M26.346,34.615l-2.172-2.172l7.071-7.071l2.172,2.172L26.346,34.615
		L26.346,34.615z M25.76,19.887l2.657,2.657l-7.071,7.071l-2.657-2.657L25.76,19.887z M32.831,76.042l-10.606,3.535l3.535-10.606
		l7.586-7.586l7.071,7.071L32.831,76.042z M43.245,65.628l-7.071-7.071l2.814-2.813l7.071,7.071L43.245,65.628z M29.174,37.443
		L29.174,37.443l2.122-2.122L68.894,72.92c0,0,0,0,0.001,0l-2.122,2.122l0,0L29.174,37.443z M70.308,77.163l5.657-5.657l2.828,8.485
		L70.308,77.163z M54.544,40.186l11.229-11.228l7.071,7.071L61.616,47.258L54.544,40.186z M75.672,33.201l-7.071-7.071l2.657-2.657
		l7.071,7.071L75.672,33.201z"/>
	<path d="M82.302,36.086l-11.5,11.5c-0.781,0.781-0.781,2.047,0,2.828C71.192,50.805,71.704,51,72.216,51
		c0.512,0,1.023-0.195,1.414-0.586l11.5-11.5c0.781-0.781,0.781-2.047,0-2.828C84.349,35.305,83.083,35.305,82.302,36.086z"/>
</g>
</svg>
