<?xml version="1.0" encoding="utf-8"?>
<!-- Generated by IcoMoon.io -->
<!DOCTYPE svg PUBLIC "-//W3C//DTD SVG 1.1//EN" "http://www.w3.org/Graphics/SVG/1.1/DTD/svg11.dtd">
<svg version="1.1" xmlns="http://www.w3.org/2000/svg" xmlns:xlink="http://www.w3.org/1999/xlink" width="100%" viewBox="0 0 50 50">
<g id="icomoon-ignore">
	<line stroke-width="1" x1="" y1="" x2="" y2="" stroke="#449FDB" opacity=""></line>
</g>
	<path d="M25 0.144l-24.855 24.856 24.855 24.856 24.856-24.856-24.856-24.856zM32.644 21.595c0 5.204-3.962 11.204-11.205 11.204-2.223 0-4.294-0.652-6.037-1.769 0.308 0.036 0.621 0.054 0.94 0.054 1.845 0 3.543-0.629 4.891-1.685-1.723-0.031-3.177-1.171-3.679-2.735 0.24 0.046 0.487 0.071 0.74 0.071 0.36 0 0.621-0.048 0.951-0.138-1.802-0.362-3.246-1.953-3.246-3.861 0-0.017 0-0.033 0-0.050 0.5 0.295 1.225 0.472 1.871 0.492-1.056-0.706-1.708-1.911-1.708-3.278 0-0.721 0.216-1.398 0.555-1.979 1.942 2.383 4.855 3.95 8.128 4.115-0.067-0.288-0.096-0.588-0.096-0.897 0-2.175 1.766-3.938 3.94-3.938 1.133 0 2.158 0.479 2.875 1.244 0.897-0.177 1.74-0.504 2.502-0.956-0.294 0.92-0.918 1.692-1.731 2.179 0.797-0.095 1.556-0.306 2.262-0.62-0.528 0.79-1.196 1.483-1.965 2.038 0.008 0.169 0.012 0.34 0.012 0.51z" fill="#65737d"></path>
</svg>
