<?xml version="1.0" encoding="utf-8"?>
<!-- Generator: Adobe Illustrator 17.0.0, SVG Export Plug-In . SVG Version: 6.00 Build 0)  -->
<!DOCTYPE svg PUBLIC "-//W3C//DTD SVG 1.1//EN" "http://www.w3.org/Graphics/SVG/1.1/DTD/svg11.dtd">
<svg version="1.1" id="Layer_1" xmlns="http://www.w3.org/2000/svg" xmlns:xlink="http://www.w3.org/1999/xlink" x="0px" y="0px"
	 width="100px" height="100px" viewBox="0 0 100 100" enable-background="new 0 0 100 100" xml:space="preserve">
<path d="M84.015,56.464c-1.953-1.952-5.118-1.952-7.071,0L55,78.408V10c0-2.761-2.239-5-5-5s-5,2.239-5,5v68.449L23.515,56.964
	c-1.953-1.952-5.118-1.952-7.071,0c-1.953,1.953-1.953,5.119,0,7.071l30,30C47.42,95.012,48.7,95.5,49.979,95.5
	s2.559-0.488,3.536-1.464l30.5-30.5C85.968,61.583,85.968,58.417,84.015,56.464z"/>
</svg>
