<?xml version="1.0" encoding="utf-8"?>
<!-- Generator: Adobe Illustrator 17.0.0, SVG Export Plug-In . SVG Version: 6.00 Build 0)  -->
<!DOCTYPE svg PUBLIC "-//W3C//DTD SVG 1.1//EN" "http://www.w3.org/Graphics/SVG/1.1/DTD/svg11.dtd">
<svg version="1.1" id="Layer_1" xmlns="http://www.w3.org/2000/svg" xmlns:xlink="http://www.w3.org/1999/xlink" x="0px" y="0px"
	 width="100px" height="100px" viewBox="0 0 100 100" enable-background="new 0 0 100 100" xml:space="preserve">
<g>
	<path d="M82.121,16.878l-9-8.999C72.559,7.316,71.796,7,71,7H20c-1.657,0-3,1.343-3,3v80c0,1.657,1.343,3,3,3h60
		c1.657,0,3-1.343,3-3V19C83,18.204,82.684,17.441,82.121,16.878z M23,87V13h43v11h11v63H23z"/>
	<path d="M70,75H30c-1.105,0-2,0.896-2,2s0.895,2,2,2h40c1.104,0,2-0.896,2-2S71.104,75,70,75z"/>
	<path d="M70,65H30c-1.105,0-2,0.896-2,2s0.895,2,2,2h40c1.104,0,2-0.896,2-2S71.104,65,70,65z"/>
	<path d="M70,45H30c-1.105,0-2,0.896-2,2s0.895,2,2,2h40c1.104,0,2-0.896,2-2S71.104,45,70,45z"/>
	<path d="M70,55H30c-1.105,0-2,0.896-2,2s0.895,2,2,2h40c1.104,0,2-0.896,2-2S71.104,55,70,55z"/>
	<path d="M30,37h20c1.104,0,2-0.896,2-2s-0.896-2-2-2H30c-1.105,0-2,0.896-2,2S28.895,37,30,37z"/>
	<path d="M30,27h20c1.104,0,2-0.896,2-2s-0.896-2-2-2H30c-1.105,0-2,0.896-2,2S28.895,27,30,27z"/>
</g>
</svg>
