<?xml version="1.0" encoding="utf-8"?>
<!-- Generator: Adobe Illustrator 17.0.0, SVG Export Plug-In . SVG Version: 6.00 Build 0)  -->
<!DOCTYPE svg PUBLIC "-//W3C//DTD SVG 1.1//EN" "http://www.w3.org/Graphics/SVG/1.1/DTD/svg11.dtd">
<svg version="1.1" id="Layer_1" xmlns="http://www.w3.org/2000/svg" xmlns:xlink="http://www.w3.org/1999/xlink" x="0px" y="0px"
	 width="100px" height="100px" viewBox="0 0 100 100" enable-background="new 0 0 100 100" xml:space="preserve">
<path d="M56.443,16.464c-1.952,1.953-1.952,4.878,0,6.832L78.388,45H9.979c-2.762,0-5,2.238-5,5c0,2.761,2.238,5,5,5h68.449
	L56.943,76.724c-1.952,1.953-1.952,5.238,0,7.191c1.953,1.953,5.119,2.013,7.071,0.06l30-29.97c0.977-0.977,1.465-2.241,1.465-3.521
	c0-1.28-0.488-2.552-1.465-3.528l-30.5-30.497C61.562,14.508,58.396,14.512,56.443,16.464z"/>
</svg>
