<?xml version="1.0" encoding="utf-8"?>
<!-- Generator: Adobe Illustrator 17.0.0, SVG Export Plug-In . SVG Version: 6.00 Build 0)  -->
<!DOCTYPE svg PUBLIC "-//W3C//DTD SVG 1.1//EN" "http://www.w3.org/Graphics/SVG/1.1/DTD/svg11.dtd">
<svg version="1.1" id="Layer_1" xmlns="http://www.w3.org/2000/svg" xmlns:xlink="http://www.w3.org/1999/xlink" x="0px" y="0px"
	 width="100px" height="100px" viewBox="0 0 100 100" enable-background="new 0 0 100 100" xml:space="preserve">
<g>
	<path d="M43.577,32.65c-0.842-0.612-1.81-0.935-2.905-0.971c-1.448,0.036-2.653,0.621-3.612,1.757
		c-0.81,1.189-1.197,2.518-1.162,3.987c0,1.939,0.566,3.959,1.697,6.057c0.547,0.979,1.254,1.81,2.12,2.491
		c0.866,0.683,1.856,1.023,2.969,1.023c1.407-0.053,2.58-0.56,3.517-1.522c0.452-0.681,0.743-1.38,0.872-2.098
		c0.077-0.716,0.117-1.318,0.117-1.81c0-2.114-0.54-4.247-1.617-6.399C45.067,34.136,44.402,33.297,43.577,32.65z"/>
	<path d="M43.219,55.576c-0.273-0.034-0.971,0-2.093,0.105c-1.106,0.155-2.238,0.41-3.394,0.758
		c-0.272,0.104-0.656,0.262-1.15,0.472c-0.494,0.228-0.994,0.549-1.504,0.969c-0.494,0.435-0.911,0.976-1.251,1.622
		c-0.392,0.682-0.587,1.5-0.587,2.462c0,1.884,0.851,3.436,2.552,4.658c1.616,1.222,3.827,1.85,6.635,1.886
		c2.518-0.036,4.441-0.594,5.767-1.677c1.293-1.064,1.94-2.434,1.94-4.109c0-1.361-0.442-2.549-1.326-3.561
		c-0.937-0.959-2.4-2.137-4.391-3.533C44.077,55.593,43.678,55.576,43.219,55.576z"/>
	<path d="M50,0.289L0.29,50L50,99.711L99.711,50L50,0.289z M49.203,32.333c0.402,0.42,0.797,1.354,1.184,1.963
		c0.368,0.577,0.696,1.257,0.981,2.042c0.235,0.785,0.352,1.701,0.352,2.748c-0.032,1.92-0.454,3.456-1.266,4.605
		c-0.398,0.559-0.82,1.073-1.266,1.545c-0.493,0.472-1.018,0.951-1.576,1.439c-0.318,0.332-0.612,0.707-0.884,1.124
		c-0.317,0.438-0.477,0.943-0.477,1.519c0,0.559,0.163,1.021,0.49,1.388c0.277,0.349,0.546,0.653,0.809,0.916l1.813,1.491
		c1.126,0.925,2.114,1.946,2.963,3.063c0.8,1.134,1.218,2.617,1.25,4.449c0,2.599-1.143,4.902-3.429,6.908
		c-2.371,2.077-5.792,3.15-10.264,3.22c-3.743-0.035-6.537-0.836-8.382-2.404c-1.864-1.462-2.795-3.211-2.795-5.249
		c0-0.993,0.303-2.1,0.909-3.317c0.589-1.22,1.653-2.292,3.195-3.214c1.73-0.992,3.549-1.654,5.452-1.986
		c1.886-0.277,3.454-0.434,4.7-0.471c-0.384-0.508-0.729-1.053-1.028-1.632c-0.353-0.562-0.528-1.238-0.528-2.028
		c0-0.473,0.066-0.872,0.201-1.187c0.118-0.334,0.226-0.647,0.328-0.929c-0.608,0.071-1.181,0.092-1.718,0.092
		c-2.844-0.035-5.012-0.963-6.504-2.725c-1.561-1.639-2.341-3.607-2.341-5.787c0-2.634,1.105-5.135,3.317-7.281
		c1.519-1.256,3.098-2.303,4.735-2.686C41.042,29.616,42.562,29,43.979,29h10.688l-3.301,2H48.07
		C48.405,31,48.783,31.932,49.203,32.333z M65,50v5h-2v-5h-7v-3h7v-6h2v6h6v3H65z"/>
</g>
</svg>
