<?xml version="1.0" encoding="utf-8"?>
<!-- Generator: Adobe Illustrator 17.0.0, SVG Export Plug-In . SVG Version: 6.00 Build 0)  -->
<!DOCTYPE svg PUBLIC "-//W3C//DTD SVG 1.1//EN" "http://www.w3.org/Graphics/SVG/1.1/DTD/svg11.dtd">
<svg version="1.1" id="Layer_1" xmlns="http://www.w3.org/2000/svg" xmlns:xlink="http://www.w3.org/1999/xlink" x="0px" y="0px"
	 width="100px" height="100px" viewBox="0 0 100 100" enable-background="new 0 0 100 100" xml:space="preserve">
<g>
	<path d="M90,22H10c-1.657,0-3,1.343-3,3v50c0,1.657,1.343,3,3,3h80c1.657,0,3-1.343,3-3V25C93,23.343,91.657,22,90,22z M87,72H13
		V28h74V72z"/>
	<path d="M18.361,66.146c0.39,0.557,1.01,0.854,1.641,0.854c0.395,0,0.796-0.117,1.144-0.361l19.231-13.463l8.409,6.414
		C49.145,59.863,49.572,60,50,60c0.429,0,0.858-0.138,1.217-0.413l8.378-6.423l19.75,13.969c0.352,0.248,0.754,0.367,1.153,0.367
		c0.627,0,1.245-0.294,1.635-0.845c0.638-0.902,0.424-2.15-0.478-2.788L62.92,50.615l18.297-14.028
		c0.877-0.672,1.042-1.928,0.37-2.804c-0.672-0.877-1.927-1.041-2.804-0.371l-28.786,22.07L21.713,33.91
		c-0.879-0.671-2.134-0.501-2.803,0.377c-0.67,0.878-0.501,2.133,0.377,2.803L37.04,50.631l-18.187,12.73
		C17.948,63.995,17.728,65.242,18.361,66.146z"/>
</g>
</svg>
