<?xml version="1.0" encoding="utf-8"?>
<!-- Generator: Adobe Illustrator 17.0.0, SVG Export Plug-In . SVG Version: 6.00 Build 0)  -->
<!DOCTYPE svg PUBLIC "-//W3C//DTD SVG 1.1//EN" "http://www.w3.org/Graphics/SVG/1.1/DTD/svg11.dtd">
<svg version="1.1" id="Layer_1" xmlns="http://www.w3.org/2000/svg" xmlns:xlink="http://www.w3.org/1999/xlink" x="0px" y="0px"
	 width="100px" height="100px" viewBox="0 0 100 100" enable-background="new 0 0 100 100" xml:space="preserve">
<g>
	<path d="M62.609,46.722C68.862,42.606,73,35.529,73,27.5c0-12.682-10.317-23-23-23s-23,10.318-23,23
		c0,8.011,4.12,15.076,10.35,19.195C23.302,51.997,15,66.637,15,87.5c0,0.544,0.147,1.077,0.428,1.544
		C16.593,90.985,22.195,95.5,49,95.5c22.202,0,33.958-2.494,34.941-7.412C83.98,87.895,84,87.698,84,87.5
		C84,66.42,76.208,51.993,62.609,46.722z M55.024,11.259C55.015,11.339,55,11.417,55,11.5v3.88
		c-4.438-0.523-7.935-2.573-7.971-2.595c-0.618-0.372-1.389-0.381-2.015-0.025C44.388,13.115,44,13.779,44,14.5v1.874
		c-2.246-0.285-4.062-0.994-5.253-1.582C41.749,12.131,45.683,10.5,50,10.5C51.748,10.5,53.435,10.767,55.024,11.259z M33,27.5
		c0-3.576,1.115-6.893,3.008-9.633C37.769,18.871,41.337,20.5,46,20.5c1.104,0,2-0.896,2-2v-0.838c2.209,0.881,5.43,1.838,9,1.838
		c1.104,0,2-0.896,2-2v-4.396c4.795,3.009,8,8.329,8,14.396c0,9.374-7.626,17-17,17S33,36.874,33,27.5z M60.602,52.393
		C59.326,57.057,55.063,60.5,50,60.5c-5.096,0-9.382-3.488-10.625-8.199C42.398,51.16,45.909,50.5,50,50.5
		C53.121,50.5,56.873,50.936,60.602,52.393z M75.755,87.129C72.185,88.21,64.646,89.5,49,89.5c-19.413,0-26.027-2.403-27.981-3.445
		c0.195-7.704,2.131-24.63,14.693-32.001C37.644,60.104,43.316,64.5,50,64.5c6.637,0,12.271-4.336,14.242-10.321
		c7.207,4.347,13.48,13.486,13.749,32.076C77.581,86.476,76.886,86.786,75.755,87.129z"/>
	<circle cx="58" cy="26.5" r="2"/>
	<circle cx="42" cy="26.5" r="2"/>
	<path d="M56.548,33.344C55.203,34.982,52.639,36,49.853,36c-2.785,0-5.35-1.018-6.694-2.656c-0.524-0.641-1.472-0.734-2.11-0.208
		c-0.641,0.526-0.734,1.471-0.208,2.111C42.769,37.597,46.138,39,49.853,39s7.085-1.403,9.013-3.752
		c0.526-0.641,0.433-1.585-0.208-2.111C58.019,32.61,57.072,32.704,56.548,33.344z"/>
</g>
</svg>
