<?xml version="1.0" encoding="utf-8"?>
<!-- Generator: Adobe Illustrator 17.0.0, SVG Export Plug-In . SVG Version: 6.00 Build 0)  -->
<!DOCTYPE svg PUBLIC "-//W3C//DTD SVG 1.1//EN" "http://www.w3.org/Graphics/SVG/1.1/DTD/svg11.dtd">
<svg version="1.1" id="Layer_1" xmlns="http://www.w3.org/2000/svg" xmlns:xlink="http://www.w3.org/1999/xlink" x="0px" y="0px"
	 width="100px" height="100px" viewBox="0 0 100 100" enable-background="new 0 0 100 100" xml:space="preserve">
<path d="M43.786,16.26c1.952,1.953,1.952,4.98,0,6.934L21.842,45H90.25c2.762,0,5,2.238,5,5c0,2.761-2.238,5-5,5H21.801
	l21.485,21.623c1.952,1.953,1.952,5.186,0,7.139c-1.953,1.953-5.119,1.987-7.071,0.034l-30-29.981
	c-0.977-0.977-1.465-2.248-1.465-3.528c0-1.28,0.488-2.554,1.465-3.531l30.5-30.499C38.667,14.305,41.833,14.308,43.786,16.26z"/>
</svg>
