<?xml version="1.0" encoding="utf-8"?>
<!-- Generated by IcoMoon.io -->
<!DOCTYPE svg PUBLIC "-//W3C//DTD SVG 1.1//EN" "http://www.w3.org/Graphics/SVG/1.1/DTD/svg11.dtd">
<svg version="1.1" xmlns="http://www.w3.org/2000/svg" xmlns:xlink="http://www.w3.org/1999/xlink" width="100%" viewBox="0 0 50 50">
<g id="icomoon-ignore">
	<line stroke-width="1" x1="" y1="" x2="" y2="" stroke="#449FDB" opacity=""></line>
</g>
	<path d="M25 0.144l-24.856 24.856 24.856 24.856 24.856-24.856-24.856-24.856zM20.5 31h-3v-10.5h3v10.5zM18.92 18.865c-1.061 0-1.92-0.86-1.92-1.92 0-1.058 0.859-1.919 1.92-1.919 1.058 0 1.919 0.86 1.919 1.919 0 1.060-0.86 1.92-1.919 1.92zM29.5 31v-5.206c0-1.237 0.081-2.825-1.617-2.825-1.723 0-1.883 1.346-1.883 2.735v5.296h-3.5v-10.5h3.5v1.261c0.502-0.889 1.537-1.594 3.017-1.594 3.352 0 3.983 2.094 3.983 4.963v5.869h-3.5z" fill="url(#g925)"></path>
		<defs>
			<linearGradient id="g925" gradientUnits="userSpaceOnUse" x1="100%" y1="100%" x2="100%" y2="0%">
				<stop stop-color="#BD4664" offset="0"/><stop stop-color=	"#FF6A15" offset="0.7"/>
			</linearGradient>		
		</defs>
</svg>
