<?xml version="1.0" encoding="utf-8"?>
<!-- Generator: Adobe Illustrator 17.0.0, SVG Export Plug-In . SVG Version: 6.00 Build 0)  -->
<!DOCTYPE svg PUBLIC "-//W3C//DTD SVG 1.1//EN" "http://www.w3.org/Graphics/SVG/1.1/DTD/svg11.dtd">
<svg version="1.1" id="Layer_1" xmlns="http://www.w3.org/2000/svg" xmlns:xlink="http://www.w3.org/1999/xlink" x="0px" y="0px"
	 width="100px" height="100px" viewBox="0 0 100 100" enable-background="new 0 0 100 100" xml:space="preserve">
<path d="M50,0.289L0.289,50L50,99.711L99.711,50L50,0.289z M41,62h-6V41h6V62z M37.84,37.729c-2.122,0-3.84-1.719-3.84-3.84
	c0-2.117,1.718-3.838,3.84-3.838c2.117,0,3.838,1.721,3.838,3.838C41.678,36.01,39.957,37.729,37.84,37.729z M59,62V51.588
	c0-2.473,0.162-5.65-3.233-5.65c-3.445,0-3.767,2.691-3.767,5.471V62h-7V41h7v2.522c1.005-1.778,3.074-3.187,6.033-3.187
	c6.705,0,7.967,4.189,7.967,9.926V62H59z"/>
</svg>
