<?xml version="1.0" encoding="utf-8"?>
<!-- Generator: Adobe Illustrator 17.0.0, SVG Export Plug-In . SVG Version: 6.00 Build 0)  -->
<!DOCTYPE svg PUBLIC "-//W3C//DTD SVG 1.1//EN" "http://www.w3.org/Graphics/SVG/1.1/DTD/svg11.dtd">
<svg version="1.1" id="Layer_1" xmlns="http://www.w3.org/2000/svg" xmlns:xlink="http://www.w3.org/1999/xlink" x="0px" y="0px"
	 width="100px" height="100px" viewBox="0 0 100 100" enable-background="new 0 0 100 100" xml:space="preserve">
<path d="M50,0.289L0.29,50L50,99.711L99.711,50L50,0.289z M65.288,43.19c0,10.407-7.923,22.409-22.41,22.409
	c-4.447,0-8.587-1.304-12.073-3.538c0.616,0.072,1.243,0.109,1.879,0.109c3.69,0,7.086-1.259,9.782-3.371
	c-3.447-0.063-6.355-2.341-7.357-5.47c0.481,0.092,0.974,0.141,1.481,0.141c0.719,0,1.241-0.096,1.902-0.276
	C34.888,52.471,32,49.288,32,45.472c0-0.033,0-0.066,0-0.099c1,0.59,2.45,0.944,3.741,0.984c-2.113-1.412-3.417-3.822-3.417-6.556
	c0-1.443,0.432-2.796,1.11-3.959c3.885,4.765,9.71,7.9,16.256,8.229c-0.135-0.576-0.193-1.177-0.193-1.794
	c0-4.35,3.532-7.877,7.881-7.877c2.266,0,4.315,0.957,5.751,2.487c1.794-0.353,3.481-1.009,5.003-1.911
	c-0.588,1.84-1.836,3.383-3.463,4.357c1.594-0.19,3.111-0.613,4.524-1.24c-1.056,1.58-2.391,2.967-3.93,4.077
	C65.28,42.509,65.288,42.849,65.288,43.19z"/>
</svg>
