<?xml version="1.0" encoding="utf-8"?>
<!-- Generator: Adobe Illustrator 18.0.0, SVG Export Plug-In . SVG Version: 6.00 Build 0)  -->
<!DOCTYPE svg PUBLIC "-//W3C//DTD SVG 1.1//EN" "http://www.w3.org/Graphics/SVG/1.1/DTD/svg11.dtd">
<svg version="1.1" id="Calque_2" xmlns="http://www.w3.org/2000/svg" xmlns:xlink="http://www.w3.org/1999/xlink" x="0px" y="0px"
	 width="90px" height="529px" viewBox="0 0 90 529" enable-background="new 0 0 90 529" xml:space="preserve">
<path fill="#65737E" d="M11.3,240.7c-0.4,0.4-0.4,1.1,0,1.5l4.8,4.8H1.2c-0.6,0-1.1,0.4-1.1,1c0,0.6,0.5,1,1.1,1h14.9l-4.7,4.8
	c-0.4,0.4-0.4,1.2,0,1.6c0.4,0.4,1.1,0.5,1.5,0l6.5-6.5c0.2-0.2,0.3-0.5,0.3-0.8c0-0.3-0.1-0.6-0.3-0.8l-6.7-6.7
	C12.4,240.3,11.7,240.3,11.3,240.7z"/>
<path fill="#65737E" d="M15.3,191.4c-0.4-0.4-1.1-0.4-1.5,0L9,196.2v-14.9c0-0.6-0.4-1.1-1-1.1c-0.6,0-1,0.5-1,1.1v14.9l-4.8-4.7
	c-0.4-0.4-1.2-0.4-1.6,0c-0.4,0.4-0.5,1.1,0,1.5l6.5,6.5c0.2,0.2,0.5,0.3,0.8,0.3c0.3,0,0.6-0.1,0.8-0.3l6.7-6.7
	C15.7,192.5,15.7,191.8,15.3,191.4z"/>
<path fill="#65737E" d="M8.5,270.8c0.4,0.4,0.4,1,0,1.5L3.8,277h14.9c0.6,0,1.1,0.9,1.1,1.5c0,0.6-0.5,1.5-1.1,1.5H3.7l4.7,4.4
	c0.4,0.4,0.4,1,0,1.4c-0.4,0.4-1.1,0.3-1.5-0.1l-6.5-6.6c-0.2-0.2-0.3-0.5-0.3-0.8s0.1-0.6,0.3-0.8l6.7-6.7
	C7.4,270.4,8.1,270.4,8.5,270.8z"/>
<g>
	<path fill="#65737E" d="M25.5,83.3l-3.4-3.1C22,80,21.6,80,21.3,80H2.7C2.1,80,0,80.2,0,80.8V110c0,0.6,2.1,1,2.7,1h21.9
		c0.6,0,1.4-0.4,1.4-1V84.1C26,83.8,25.7,83.5,25.5,83.3z M4,109V82h16v4h4v23H4z"/>
	<path fill="#65737E" d="M21,105H6.4c-0.4,0-0.7,0.1-0.7,0.5S6,106,6.4,106H21c0.4,0,0.7-0.1,0.7-0.5S21.4,105,21,105z"/>
	<path fill="#65737E" d="M21,102H6.4c-0.4,0-0.7,0.1-0.7,0.5S6,103,6.4,103H21c0.4,0,0.7-0.1,0.7-0.5S21.4,102,21,102z"/>
	<path fill="#65737E" d="M21,93H6.4c-0.4,0-0.7,0.6-0.7,1s0.3,1,0.7,1H21c0.4,0,0.7-0.6,0.7-1S21.4,93,21,93z"/>
	<path fill="#65737E" d="M21,97H6.4c-0.4,0-0.7,1.1-0.7,1.5S6,100,6.4,100H21c0.4,0,0.7-1.1,0.7-1.5S21.4,97,21,97z"/>
	<path fill="#65737E" d="M6.4,91h7.3c0.4,0,0.7-0.6,0.7-1s-0.3-1-0.7-1H6.4c-0.4,0-0.7,0.6-0.7,1S6,91,6.4,91z"/>
	<path fill="#65737E" d="M6.4,87h7.3c0.4,0,0.7-0.1,0.7-0.5S14.1,86,13.7,86H6.4c-0.4,0-0.7,0.1-0.7,0.5S6,87,6.4,87z"/>
</g>
<g>
	<path fill="#65737E" d="M27.5,122l-1.9-1.9c-0.3-0.3-0.7-0.3-1,0l-1.6,1.6c-0.3-0.2-0.7-0.3-1.1-0.3c-0.6,0-1.1,0.2-1.5,0.6
		l-6.1,6.1l-7.4-7.4c-0.4-0.4-1-0.6-1.5-0.6c-0.6,0-1.1,0.2-1.5,0.6l-2.6,2.6c-0.4,0.4-0.6,1-0.6,1.5s0.2,1.1,0.6,1.5l7.4,7.4
		l-4.8,4.8c-0.2,0.2-0.4,0.5-0.5,0.9l-1.3,3.9c-0.3,0.8-0.1,1.7,0.5,2.2c0.4,0.4,1,0.6,1.5,0.6c0.2,0,0.5,0,0.7-0.1l3.9-1.3
		c0.3-0.1,0.6-0.3,0.9-0.5l4.8-4.8l5,5c0.2,0.2,0.5,0.4,0.9,0.5l3.9,1.3c0.2,0.1,0.5,0.1,0.7,0.1c0.6,0,1.1-0.2,1.5-0.6
		c0.6-0.6,0.8-1.5,0.5-2.2l-1.3-3.9c-0.1-0.3-0.3-0.6-0.5-0.9l-5-5l6.1-6.1c0.9-0.9,0.9-2.2,0-3.1l0,0l1.5-1.5
		C27.7,122.8,27.7,122.3,27.5,122z M25,121.7l0.9,0.9l-0.8,0.8l-0.9-0.9L25,121.7z M22,140.6L22,140.6L8.2,126.9l0.8-0.8l13.7,13.7
		L22,140.6z M5.4,127.6l-0.8-0.8l2.6-2.6l0.8,0.8L5.4,127.6L5.4,127.6z M5.2,122.3l1,1l-2.6,2.6l-1-1L5.2,122.3z M7.8,142.8
		l-3.9,1.3l1.3-3.9l2.8-2.8l2.6,2.6L7.8,142.8z M11.6,139L9,136.4l1-1l2.6,2.6L11.6,139z M6.4,128.7L6.4,128.7l0.8-0.8l13.7,13.7h0
		l-0.8,0.8l0,0L6.4,128.7z M21.5,143.2l2.1-2.1l1,3.1L21.5,143.2z M15.7,129.7l4.1-4.1l2.6,2.6l-4.1,4.1L15.7,129.7z M23.4,127.1
		l-2.6-2.6l1-1l2.6,2.6L23.4,127.1z"/>
	<path fill="#65737E" d="M25.8,128.2l-4.2,4.2c-0.3,0.3-0.3,0.7,0,1c0.1,0.1,0.3,0.2,0.5,0.2s0.4-0.1,0.5-0.2l4.2-4.2
		c0.3-0.3,0.3-0.7,0-1C26.6,127.9,26.1,127.9,25.8,128.2z"/>
</g>
<g>
	<path fill="#65737E" d="M32,151.1c0-0.6-0.5-1.1-1.1-1.1H1.1c-0.6,0-1.1,0.5-1.1,1.1v17.8c0,0.6,0.5,1.1,1.1,1.1h29.8
		c0.6,0,1.1-0.5,1.1-1.1V151.1z M30,168H3v-16h27V168z"/>
	<path fill="#65737E" d="M4.7,165.7c0.1,0.2,0.4,0.3,0.6,0.3c0.1,0,0.3,0,0.4-0.1l7-4.9l3.1,2.3c0.1,0.1,0.3,0.1,0.4,0.1
		c0.2,0,0.3-0.1,0.4-0.2l3.1-2.3l7.2,5.1c0.1,0.1,0.3,0.1,0.4,0.1c0.2,0,0.5-0.1,0.6-0.3c0.2-0.3,0.2-0.8-0.2-1l-6.8-4.8l6.7-5.1
		c0.3-0.2,0.4-0.7,0.1-1c-0.2-0.3-0.7-0.4-1-0.1l-10.5,8.1l-10.3-7.9c-0.3-0.2-0.8-0.2-1,0.1c-0.2,0.3-0.2,0.8,0.1,1l6.5,4.9
		l-6.6,4.6C4.5,164.9,4.4,165.3,4.7,165.7z"/>
</g>
<g>
	<path fill="#65737E" d="M17.4,56c2.3-1.5,3.8-4.1,3.8-7c0-4.6-3.8-8.4-8.4-8.4c-4.6,0-8.4,3.8-8.4,8.4c0,2.9,1.5,5.5,3.8,7
		C3,57.9,0,63.2,0,70.9c0,0.2,0.1,0.4,0.2,0.6c0.4,0.7,2.5,2.4,12.3,2.4c8.1,0,12.4-0.9,12.8-2.7c0-0.1,0-0.1,0-0.2
		C25.2,63.2,22.3,57.9,17.4,56z M14.3,43c0,0-0.3,0.1-0.3,0.1v1.4c-1-0.2-2.6-0.9-2.6-0.9c-0.2-0.1-0.7-0.1-0.9,0
		c-0.2,0.1-0.5,0.4-0.5,0.6v0.7c0-0.1-1.2-0.4-1.6-0.6c1.1-1,2.5-1.6,4.1-1.6C13.1,42.7,13.7,42.8,14.3,43z M6.6,48.9
		c0-1.3,0.4-2.5,1.1-3.5c0.6,0.4,1.9,1,3.6,1c0.4,0,0.7-0.3,0.7-0.7v-0.3c1,0.3,2,0.7,3.3,0.7c0.4,0,0.7-0.3,0.7-0.7v-1.6
		c2,1.1,3,3,3,5.3c0,3.4-2.8,6.2-6.2,6.2S6.6,52.4,6.6,48.9z M16.7,58c-0.5,1.7-2,3-3.9,3c-1.9,0-3.4-1.3-3.9-3
		c1.1-0.4,2.4-0.7,3.9-0.7C13.9,57.3,15.3,57.5,16.7,58z M22.2,70.7c-1.3,0.4-4.1,0.9-9.8,0.9c-7.1,0-9.5-0.9-10.2-1.3
		c0.1-2.8,0.8-9,5.4-11.7c0.7,2.2,2.8,3.8,5.2,3.8c2.4,0,4.5-1.6,5.2-3.8c2.6,1.6,4.9,4.9,5,11.7C22.9,70.5,22.6,70.6,22.2,70.7z"/>
	<circle fill="#65737E" cx="15.7" cy="48.6" r="0.7"/>
	<circle fill="#65737E" cx="9.9" cy="48.6" r="0.7"/>
	<path fill="#65737E" d="M15.2,51.1c-0.5,0.6-1.4,1-2.4,1c-1,0-2-0.4-2.4-1c-0.2-0.2-0.5-0.3-0.8-0.1c-0.2,0.2-0.3,0.5-0.1,0.8
		c0.7,0.9,1.9,1.4,3.3,1.4s2.6-0.5,3.3-1.4c0.2-0.2,0.2-0.6-0.1-0.8C15.7,50.8,15.4,50.8,15.2,51.1z"/>
</g>
<path fill="#65737E" d="M5.9,300c-3.2,0-5.9,2.6-5.9,5.9c0,5.1,5.9,9.8,5.9,9.8s5.9-4.7,5.9-9.8C11.8,302.6,9.1,300,5.9,300z
	 M5.9,308.8c-1.6,0-2.9-1.3-2.9-2.9s1.3-2.9,2.9-2.9s2.9,1.3,2.9,2.9S7.5,308.8,5.9,308.8z"/>
<path fill="#65737E" d="M19.5,380L0,399.5L19.5,419L39,399.5L19.5,380z M25.5,396.8c0,4.1-3.1,8.8-8.8,8.8c-1.7,0-3.4-0.5-4.7-1.4
	c0.2,0,0.5,0,0.7,0c1.4,0,2.8-0.5,3.8-1.3c-1.4,0-2.5-0.9-2.9-2.1c0.2,0,0.4,0.1,0.6,0.1c0.3,0,0.3,0,0.5-0.1
	c-1.4-0.3-2.8-1.5-2.8-3c0,0,0,0,0,0c1,0.2,1.2,0.4,1.7,0.4c-0.8-0.6-1.2-1.5-1.2-2.6c0-0.6,0.2-1.1,0.5-1.6
	c1.5,1.9,3.8,3.1,6.4,3.2c-0.1-0.2-0.1-0.5-0.1-0.7c0-1.7,1.4-3.1,3.1-3.1c0.9,0,1.7,0.4,2.3,1c0.7-0.1,1.4-0.4,2-0.7
	c-0.2,0.7-0.7,1.3-1.4,1.7c0.6-0.1,1.2-0.2,1.8-0.5c-0.4,0.6-0.9,1.2-1.5,1.6C25.5,396.6,25.5,396.7,25.5,396.8z"/>
<path fill="#65737E" d="M19.5,430L0,449.5L19.5,469L39,449.5L19.5,430z M16,454h-3v-8h3V454z M14.7,444.7c-0.8,0-1.5-0.7-1.5-1.5
	c0-0.8,0.7-1.5,1.5-1.5c0.8,0,1.5,0.7,1.5,1.5C16.2,444.1,15.6,444.7,14.7,444.7z M23,454v-3.8c0-1-0.1-2.2-1.4-2.2
	c-1.4,0-1.6,1.1-1.6,2.1v3.9h-2v-8h2v1c1-0.7,1.5-1.2,2.6-1.2c2.6,0,3.4,1.6,3.4,3.9v4.4H23z"/>
<path fill="#65737E" d="M19.5,480L0,499.5L19.5,519L39,499.5L19.5,480z M23.5,497l-0.4,3H20v7h-2v-7h-3v-3h3v-1.6
	c0-2.4,1.1-3.7,3.2-3.7c1,0,1.8,0.1,1.8,0.1v2.2h-1c-1.2,0-2,0.9-2,1.7v1.3H23.5z"/>
<g>
	<path fill="#65737E" d="M16.8,343.4c-0.3-0.2-0.7-0.4-1.1-0.4c-0.6,0-1,0.2-1.4,0.7c-0.3,0.5-0.5,1-0.5,1.6c0,0.8,0.2,1.6,0.7,2.4
		c0.2,0.4,0.5,0.7,0.8,1c0.3,0.3,0.7,0.4,1.2,0.4c0.6,0,1-0.2,1.4-0.6c0.2-0.3,0.3-0.5,0.3-0.8c0-0.3,0-0.5,0-0.7
		c0-0.8-0.2-1.7-0.6-2.5C17.4,343.9,17.2,343.6,16.8,343.4z"/>
	<path fill="#65737E" d="M16.7,352.4c-0.1,0-0.4,0-0.8,0c-0.4,0.1-0.9,0.2-1.3,0.3c-0.1,0-0.3,0.1-0.5,0.2c-0.2,0.1-0.4,0.2-0.6,0.4
		c-0.2,0.2-0.4,0.4-0.5,0.6c-0.2,0.3-0.2,0.6-0.2,1c0,0.7,0.3,1.3,1,1.8c0.6,0.5,1.5,0.7,2.6,0.7c1,0,1.7-0.2,2.3-0.7
		c0.5-0.4,0.8-1,0.8-1.6c0-0.5-0.2-1-0.5-1.4c-0.4-0.4-0.9-0.8-1.7-1.4C17,352.4,16.9,352.4,16.7,352.4z"/>
	<path fill="#65737E" d="M19.4,330.7l-19.5,19.5l19.5,19.5l19.5-19.5L19.4,330.7z M19,343.4c0.2,0.2,0.3,0.5,0.5,0.7
		c0.1,0.2,0.3,0.5,0.4,0.8c0.1,0.3,0.1,0.6,0.1,1.1c0,0.8-0.2,1.3-0.5,1.8c-0.2,0.2-0.3,0.4-0.5,0.6c-0.2,0.2-0.4,0.4-0.6,0.6
		c-0.1,0.1-0.2,0.3-0.3,0.4c-0.1,0.2-0.2,0.4-0.2,0.6c0,0.2,0.1,0.4,0.2,0.5c0.1,0.1,0.2,0.3,0.3,0.4l0.7,0.6
		c0.4,0.4,0.8,0.8,1.2,1.2c0.3,0.4,0.5,1,0.5,1.7c0,1-0.4,1.9-1.3,2.7c-0.9,0.8-2.3,1.2-4,1.3c-1.5,0-2.6-0.3-3.3-0.9
		c-0.7-0.6-1.1-1.3-1.1-2.1c0-0.4,0.1-0.8,0.4-1.3c0.2-0.5,0.6-0.9,1.3-1.3c0.7-0.4,1.4-0.6,2.1-0.8c0.7-0.1,1.4-0.2,1.8-0.2
		c-0.2-0.2-0.3-0.4-0.4-0.6c-0.1-0.2-0.2-0.5-0.2-0.8c0-0.2,0-0.3,0.1-0.5c0-0.1,0.1-0.3,0.1-0.4c-0.2,0-0.5,0-0.7,0
		c-1.1,0-2-0.4-2.6-1.1c-0.6-0.6-0.9-1.4-0.9-2.3c0-1,0.4-2,1.3-2.9c0.6-0.5,1.2-0.9,1.9-1c0.6-0.1,1.2-0.3,1.8-0.3h4.2l-1.3,1h-1.3
		C18.7,343,18.9,343.2,19,343.4z M25,350v2h-1v-2h-2v-1h2v-2h1v2h2v1H25z"/>
</g>
<path fill="#FF6A00" d="M61.3,240.7c-0.4,0.4-0.4,1.1,0,1.5l4.8,4.8H51.2c-0.6,0-1.1,0.4-1.1,1c0,0.6,0.5,1,1.1,1h14.9l-4.7,4.8
	c-0.4,0.4-0.4,1.2,0,1.6c0.4,0.4,1.1,0.5,1.5,0l6.5-6.5c0.2-0.2,0.3-0.5,0.3-0.8c0-0.3-0.1-0.6-0.3-0.8l-6.7-6.7
	C62.4,240.3,61.7,240.3,61.3,240.7z"/>
<path fill="#FF6A00" d="M65.3,191.4c-0.4-0.4-1.1-0.4-1.5,0l-4.8,4.8v-14.9c0-0.6-0.4-1.1-1-1.1c-0.6,0-1,0.5-1,1.1v14.9l-4.8-4.7
	c-0.4-0.4-1.2-0.4-1.6,0c-0.4,0.4-0.5,1.1,0,1.5l6.5,6.5c0.2,0.2,0.5,0.3,0.8,0.3c0.3,0,0.6-0.1,0.8-0.3l6.7-6.7
	C65.7,192.5,65.7,191.8,65.3,191.4z"/>
<path fill="#65737E" d="M0.6,218.7c0.4,0.4,1.2,0.4,1.6,0l4.8-4.8v14.9c0,0.6,0.4,1.1,1,1.1c0.6,0,1-0.5,1-1.1v-14.9l4.7,4.7
	c0.4,0.4,1.1,0.4,1.6,0c0.4-0.4,0.4-1.1,0-1.5l-6.5-6.5c-0.2-0.2-0.5-0.3-0.8-0.3c-0.3,0-0.6,0.1-0.8,0.3l-6.7,6.7
	C0.2,217.6,0.2,218.3,0.6,218.7z"/>
<path fill="#FF6A00" d="M50.6,218.7c0.4,0.4,1.2,0.4,1.6,0l4.8-4.8v14.9c0,0.6,0.4,1.1,1,1.1c0.6,0,1-0.5,1-1.1v-14.9l4.7,4.7
	c0.4,0.4,1.1,0.4,1.6,0c0.4-0.4,0.4-1.1,0-1.5l-6.5-6.5c-0.2-0.2-0.5-0.3-0.8-0.3c-0.3,0-0.6,0.1-0.8,0.3l-6.7,6.7
	C50.2,217.6,50.2,218.3,50.6,218.7z"/>
<path fill="#FF6A00" d="M58.5,270.8c0.4,0.4,0.4,1,0,1.5l-4.8,4.7h14.9c0.6,0,1.1,0.9,1.1,1.5c0,0.6-0.5,1.5-1.1,1.5H53.7l4.7,4.4
	c0.4,0.4,0.4,1,0,1.4c-0.4,0.4-1.1,0.3-1.5-0.1l-6.5-6.6c-0.2-0.2-0.3-0.5-0.3-0.8s0.1-0.6,0.3-0.8l6.7-6.7
	C57.4,270.4,58.1,270.4,58.5,270.8z"/>
<g>
	<path fill="#FF6A00" d="M75.5,83.3l-3.4-3.1C72,80,71.6,80,71.3,80H52.7c-0.6,0-2.7,0.2-2.7,0.8V110c0,0.6,2.1,1,2.7,1h21.9
		c0.6,0,1.4-0.4,1.4-1V84.1C76,83.8,75.7,83.5,75.5,83.3z M54,109V82h16v4h4v23H54z"/>
	<path fill="#FF6A00" d="M71,105H56.4c-0.4,0-0.7,0.1-0.7,0.5s0.3,0.5,0.7,0.5H71c0.4,0,0.7-0.1,0.7-0.5S71.4,105,71,105z"/>
	<path fill="#FF6A00" d="M71,102H56.4c-0.4,0-0.7,0.1-0.7,0.5s0.3,0.5,0.7,0.5H71c0.4,0,0.7-0.1,0.7-0.5S71.4,102,71,102z"/>
	<path fill="#FF6A00" d="M71,93H56.4c-0.4,0-0.7,0.6-0.7,1s0.3,1,0.7,1H71c0.4,0,0.7-0.6,0.7-1S71.4,93,71,93z"/>
	<path fill="#FF6A00" d="M71,97H56.4c-0.4,0-0.7,1.1-0.7,1.5s0.3,1.5,0.7,1.5H71c0.4,0,0.7-1.1,0.7-1.5S71.4,97,71,97z"/>
	<path fill="#FF6A00" d="M56.4,91h7.3c0.4,0,0.7-0.6,0.7-1s-0.3-1-0.7-1h-7.3c-0.4,0-0.7,0.6-0.7,1S56,91,56.4,91z"/>
	<path fill="#FF6A00" d="M56.4,87h7.3c0.4,0,0.7-0.1,0.7-0.5S64.1,86,63.7,86h-7.3c-0.4,0-0.7,0.1-0.7,0.5S56,87,56.4,87z"/>
</g>
<g>
	<path fill="#FF6A00" d="M77.5,122l-1.9-1.9c-0.3-0.3-0.7-0.3-1,0l-1.6,1.6c-0.3-0.2-0.7-0.3-1.1-0.3c-0.6,0-1.1,0.2-1.5,0.6
		l-6.1,6.1l-7.4-7.4c-0.4-0.4-1-0.6-1.5-0.6c-0.6,0-1.1,0.2-1.5,0.6l-2.6,2.6c-0.4,0.4-0.6,1-0.6,1.5s0.2,1.1,0.6,1.5l7.4,7.4
		l-4.8,4.8c-0.2,0.2-0.4,0.5-0.5,0.9l-1.3,3.9c-0.3,0.8-0.1,1.7,0.5,2.2c0.4,0.4,1,0.6,1.5,0.6c0.2,0,0.5,0,0.7-0.1l3.9-1.3
		c0.3-0.1,0.6-0.3,0.9-0.5l4.8-4.8l5,5c0.2,0.2,0.5,0.4,0.9,0.5l3.9,1.3c0.2,0.1,0.5,0.1,0.7,0.1c0.6,0,1.1-0.2,1.5-0.6
		c0.6-0.6,0.8-1.5,0.5-2.2l-1.3-3.9c-0.1-0.3-0.3-0.6-0.5-0.9l-5-5l6.1-6.1c0.9-0.9,0.9-2.2,0-3.1l0,0l1.5-1.5
		C77.7,122.8,77.7,122.3,77.5,122z M75,121.7l0.9,0.9l-0.8,0.8l-0.9-0.9L75,121.7z M72,140.6L72,140.6l-13.7-13.7l0.8-0.8l13.7,13.7
		L72,140.6z M55.4,127.6l-0.8-0.8l2.6-2.6l0.8,0.8L55.4,127.6L55.4,127.6z M55.2,122.3l1,1l-2.6,2.6l-1-1L55.2,122.3z M57.8,142.8
		l-3.9,1.3l1.3-3.9l2.8-2.8l2.6,2.6L57.8,142.8z M61.6,139l-2.6-2.6l1-1l2.6,2.6L61.6,139z M56.4,128.7L56.4,128.7l0.8-0.8
		l13.7,13.7h0l-0.8,0.8l0,0L56.4,128.7z M71.5,143.2l2.1-2.1l1,3.1L71.5,143.2z M65.7,129.7l4.1-4.1l2.6,2.6l-4.1,4.1L65.7,129.7z
		 M73.4,127.1l-2.6-2.6l1-1l2.6,2.6L73.4,127.1z"/>
	<path fill="#FF6A00" d="M75.8,128.2l-4.2,4.2c-0.3,0.3-0.3,0.7,0,1c0.1,0.1,0.3,0.2,0.5,0.2c0.2,0,0.4-0.1,0.5-0.2l4.2-4.2
		c0.3-0.3,0.3-0.7,0-1C76.6,127.9,76.1,127.9,75.8,128.2z"/>
</g>
<g>
	<path fill="#FF6A00" d="M82,151.1c0-0.6-0.5-1.1-1.1-1.1H51.1c-0.6,0-1.1,0.5-1.1,1.1v17.8c0,0.6,0.5,1.1,1.1,1.1h29.8
		c0.6,0,1.1-0.5,1.1-1.1V151.1z M80,168H53v-16h27V168z"/>
	<path fill="#FF6A00" d="M54.7,165.7c0.1,0.2,0.4,0.3,0.6,0.3c0.1,0,0.3,0,0.4-0.1l7-4.9l3.1,2.3c0.1,0.1,0.3,0.1,0.4,0.1
		c0.2,0,0.3-0.1,0.4-0.2l3.1-2.3l7.2,5.1c0.1,0.1,0.3,0.1,0.4,0.1c0.2,0,0.5-0.1,0.6-0.3c0.2-0.3,0.2-0.8-0.2-1l-6.8-4.8l6.7-5.1
		c0.3-0.2,0.4-0.7,0.1-1c-0.2-0.3-0.7-0.4-1-0.1l-10.5,8.1l-10.3-7.9c-0.3-0.2-0.8-0.2-1,0.1c-0.2,0.3-0.2,0.8,0.1,1l6.5,4.9
		l-6.6,4.6C54.5,164.9,54.4,165.3,54.7,165.7z"/>
</g>
<g>
	<path fill="#FF6A00" d="M67.4,56c2.3-1.5,3.8-4.1,3.8-7c0-4.6-3.8-8.4-8.4-8.4s-8.4,3.8-8.4,8.4c0,2.9,1.5,5.5,3.8,7
		C53,57.9,50,63.2,50,70.9c0,0.2,0.1,0.4,0.2,0.6c0.4,0.7,2.5,2.4,12.3,2.4c8.1,0,12.4-0.9,12.8-2.7c0-0.1,0-0.1,0-0.2
		C75.2,63.2,72.3,57.9,67.4,56z M64.3,43c0,0-0.3,0.1-0.3,0.1v1.4c-1-0.2-2.6-0.9-2.6-0.9c-0.2-0.1-0.7-0.1-0.9,0
		c-0.2,0.1-0.5,0.4-0.5,0.6v0.7c0-0.1-1.2-0.4-1.6-0.6c1.1-1,2.5-1.6,4.1-1.6C63.1,42.7,63.7,42.8,64.3,43z M56.6,48.9
		c0-1.3,0.4-2.5,1.1-3.5c0.6,0.4,1.9,1,3.6,1c0.4,0,0.7-0.3,0.7-0.7v-0.3c1,0.3,2,0.7,3.3,0.7c0.4,0,0.7-0.3,0.7-0.7v-1.6
		c2,1.1,3,3,3,5.3c0,3.4-2.8,6.2-6.2,6.2C59.3,55.2,56.6,52.4,56.6,48.9z M66.7,58c-0.5,1.7-2,3-3.9,3c-1.9,0-3.4-1.3-3.9-3
		c1.1-0.4,2.4-0.7,3.9-0.7C63.9,57.3,65.3,57.5,66.7,58z M72.2,70.7c-1.3,0.4-4.1,0.9-9.8,0.9c-7.1,0-9.5-0.9-10.2-1.3
		c0.1-2.8,0.8-9,5.4-11.7c0.7,2.2,2.8,3.8,5.2,3.8c2.4,0,4.5-1.6,5.2-3.8c2.6,1.6,4.9,4.9,5,11.7C72.9,70.5,72.6,70.6,72.2,70.7z"/>
	<circle fill="#FF6A00" cx="65.7" cy="48.6" r="0.7"/>
	<circle fill="#FF6A00" cx="59.9" cy="48.6" r="0.7"/>
	<path fill="#FF6A00" d="M65.2,51.1c-0.5,0.6-1.4,1-2.4,1c-1,0-2-0.4-2.4-1c-0.2-0.2-0.5-0.3-0.8-0.1c-0.2,0.2-0.3,0.5-0.1,0.8
		c0.7,0.9,1.9,1.4,3.3,1.4c1.4,0,2.6-0.5,3.3-1.4c0.2-0.2,0.2-0.6-0.1-0.8C65.7,50.8,65.4,50.8,65.2,51.1z"/>
</g>
<path fill="#FF6A00" d="M55.9,300c-3.2,0-5.9,2.6-5.9,5.9c0,5.1,5.9,9.8,5.9,9.8s5.9-4.7,5.9-9.8C61.8,302.6,59.1,300,55.9,300z
	 M55.9,308.8c-1.6,0-2.9-1.3-2.9-2.9s1.3-2.9,2.9-2.9s2.9,1.3,2.9,2.9S57.5,308.8,55.9,308.8z"/>
<linearGradient id="SVGID_1_" gradientUnits="userSpaceOnUse" x1="69.4988" y1="418.9952" x2="69.4988" y2="379.9974">
	<stop  offset="0" style="stop-color:#BD4664"/>
	<stop  offset="0.2017" style="stop-color:#D0504D"/>
	<stop  offset="0.5282" style="stop-color:#EA5E2F"/>
	<stop  offset="0.8059" style="stop-color:#F9671C"/>
	<stop  offset="1" style="stop-color:#FF6A15"/>
</linearGradient>
<path fill="url(#SVGID_1_)" d="M69.5,380L50,399.5L69.5,419L89,399.5L69.5,380z M75.5,396.8c0,4.1-3.1,8.8-8.8,8.8
	c-1.7,0-3.4-0.5-4.7-1.4c0.2,0,0.5,0,0.7,0c1.4,0,2.8-0.5,3.8-1.3c-1.4,0-2.5-0.9-2.9-2.1c0.2,0,0.4,0.1,0.6,0.1
	c0.3,0,0.3,0,0.5-0.1c-1.4-0.3-2.8-1.5-2.8-3c0,0,0,0,0,0c1,0.2,1.2,0.4,1.7,0.4c-0.8-0.6-1.2-1.5-1.2-2.6c0-0.6,0.2-1.1,0.5-1.6
	c1.5,1.9,3.8,3.1,6.4,3.2c-0.1-0.2-0.1-0.5-0.1-0.7c0-1.7,1.4-3.1,3.1-3.1c0.9,0,1.7,0.4,2.3,1c0.7-0.1,1.4-0.4,2-0.7
	c-0.2,0.7-0.7,1.3-1.4,1.7c0.6-0.1,1.2-0.2,1.8-0.5c-0.4,0.6-0.9,1.2-1.5,1.6C75.5,396.6,75.5,396.7,75.5,396.8z"/>
<linearGradient id="SVGID_2_" gradientUnits="userSpaceOnUse" x1="69.4989" y1="469.0442" x2="69.4989" y2="430.0464">
	<stop  offset="0" style="stop-color:#BD4664"/>
	<stop  offset="0.2017" style="stop-color:#D0504D"/>
	<stop  offset="0.5282" style="stop-color:#EA5E2F"/>
	<stop  offset="0.8059" style="stop-color:#F9671C"/>
	<stop  offset="1" style="stop-color:#FF6A15"/>
</linearGradient>
<path fill="url(#SVGID_2_)" d="M69.5,430L50,449.5L69.5,469L89,449.5L69.5,430z M66,454h-3v-8h3V454z M64.7,444.7
	c-0.8,0-1.5-0.7-1.5-1.5c0-0.8,0.7-1.5,1.5-1.5c0.8,0,1.5,0.7,1.5,1.5C66.2,444.1,65.6,444.7,64.7,444.7z M73,454v-3.8
	c0-1-0.1-2.2-1.4-2.2c-1.4,0-1.6,1.1-1.6,2.1v3.9h-2v-8h2v1c1-0.7,1.5-1.2,2.6-1.2c2.6,0,3.4,1.6,3.4,3.9v4.4H73z"/>
<linearGradient id="SVGID_3_" gradientUnits="userSpaceOnUse" x1="69.4989" y1="519.0443" x2="69.4989" y2="480.0465">
	<stop  offset="0" style="stop-color:#BD4664"/>
	<stop  offset="0.2017" style="stop-color:#D0504D"/>
	<stop  offset="0.5282" style="stop-color:#EA5E2F"/>
	<stop  offset="0.8059" style="stop-color:#F9671C"/>
	<stop  offset="1" style="stop-color:#FF6A15"/>
</linearGradient>
<path fill="url(#SVGID_3_)" d="M69.5,480L50,499.5L69.5,519L89,499.5L69.5,480z M73.5,497l-0.4,3H70v7h-2v-7h-3v-3h3v-1.6
	c0-2.4,1.1-3.7,3.2-3.7c1,0,1.8,0.1,1.8,0.1v2.2h-1c-1.2,0-2,0.9-2,1.7v1.3H73.5z"/>
<g>
	<linearGradient id="SVGID_4_" gradientUnits="userSpaceOnUse" x1="66.0329" y1="348.9843" x2="66.0329" y2="342.9769">
		<stop  offset="0" style="stop-color:#BD4664"/>
		<stop  offset="0.2017" style="stop-color:#D0504D"/>
		<stop  offset="0.5282" style="stop-color:#EA5E2F"/>
		<stop  offset="0.8059" style="stop-color:#F9671C"/>
		<stop  offset="1" style="stop-color:#FF6A15"/>
	</linearGradient>
	<path fill="url(#SVGID_4_)" d="M66.8,343.4c-0.3-0.2-0.7-0.4-1.1-0.4c-0.6,0-1,0.2-1.4,0.7c-0.3,0.5-0.5,1-0.5,1.6
		c0,0.8,0.2,1.6,0.7,2.4c0.2,0.4,0.5,0.7,0.8,1c0.3,0.3,0.7,0.4,1.2,0.4c0.6,0,1-0.2,1.4-0.6c0.2-0.3,0.3-0.5,0.3-0.8
		c0-0.3,0-0.5,0-0.7c0-0.8-0.2-1.7-0.6-2.5C67.4,343.9,67.2,343.6,66.8,343.4z"/>
	<linearGradient id="SVGID_5_" gradientUnits="userSpaceOnUse" x1="66.0896" y1="357.4226" x2="66.0896" y2="352.3452">
		<stop  offset="0" style="stop-color:#BD4664"/>
		<stop  offset="0.2017" style="stop-color:#D0504D"/>
		<stop  offset="0.5282" style="stop-color:#EA5E2F"/>
		<stop  offset="0.8059" style="stop-color:#F9671C"/>
		<stop  offset="1" style="stop-color:#FF6A15"/>
	</linearGradient>
	<path fill="url(#SVGID_5_)" d="M66.7,352.4c-0.1,0-0.4,0-0.8,0c-0.4,0.1-0.9,0.2-1.3,0.3c-0.1,0-0.3,0.1-0.5,0.2
		c-0.2,0.1-0.4,0.2-0.6,0.4c-0.2,0.2-0.4,0.4-0.5,0.6c-0.2,0.3-0.2,0.6-0.2,1c0,0.7,0.3,1.3,1,1.8c0.6,0.5,1.5,0.7,2.6,0.7
		c1,0,1.7-0.2,2.3-0.7c0.5-0.4,0.8-1,0.8-1.6c0-0.5-0.2-1-0.5-1.4c-0.4-0.4-0.9-0.8-1.7-1.4C67,352.4,66.9,352.4,66.7,352.4z"/>
	<linearGradient id="SVGID_6_" gradientUnits="userSpaceOnUse" x1="69.3504" y1="369.6619" x2="69.3504" y2="330.6641">
		<stop  offset="0" style="stop-color:#BD4664"/>
		<stop  offset="0.2017" style="stop-color:#D0504D"/>
		<stop  offset="0.5282" style="stop-color:#EA5E2F"/>
		<stop  offset="0.8059" style="stop-color:#F9671C"/>
		<stop  offset="1" style="stop-color:#FF6A15"/>
	</linearGradient>
	<path fill="url(#SVGID_6_)" d="M69.4,330.7l-19.5,19.5l19.5,19.5l19.5-19.5L69.4,330.7z M69,343.4c0.2,0.2,0.3,0.5,0.5,0.7
		c0.1,0.2,0.3,0.5,0.4,0.8c0.1,0.3,0.1,0.6,0.1,1.1c0,0.8-0.2,1.3-0.5,1.8c-0.2,0.2-0.3,0.4-0.5,0.6c-0.2,0.2-0.4,0.4-0.6,0.6
		c-0.1,0.1-0.2,0.3-0.3,0.4c-0.1,0.2-0.2,0.4-0.2,0.6c0,0.2,0.1,0.4,0.2,0.5c0.1,0.1,0.2,0.3,0.3,0.4l0.7,0.6
		c0.4,0.4,0.8,0.8,1.2,1.2c0.3,0.4,0.5,1,0.5,1.7c0,1-0.4,1.9-1.3,2.7c-0.9,0.8-2.3,1.2-4,1.3c-1.5,0-2.6-0.3-3.3-0.9
		c-0.7-0.6-1.1-1.3-1.1-2.1c0-0.4,0.1-0.8,0.4-1.3c0.2-0.5,0.6-0.9,1.3-1.3c0.7-0.4,1.4-0.6,2.1-0.8c0.7-0.1,1.4-0.2,1.8-0.2
		c-0.2-0.2-0.3-0.4-0.4-0.6c-0.1-0.2-0.2-0.5-0.2-0.8c0-0.2,0-0.3,0.1-0.5c0-0.1,0.1-0.3,0.1-0.4c-0.2,0-0.5,0-0.7,0
		c-1.1,0-2-0.4-2.6-1.1c-0.6-0.6-0.9-1.4-0.9-2.3c0-1,0.4-2,1.3-2.9c0.6-0.5,1.2-0.9,1.9-1c0.6-0.1,1.2-0.3,1.8-0.3h4.2l-1.3,1h-1.3
		C68.7,343,68.9,343.2,69,343.4z M75,350v2h-1v-2h-2v-1h2v-2h1v2h2v1H75z"/>
</g>
<g>
	
		<linearGradient id="SVGID_7_" gradientUnits="userSpaceOnUse" x1="704.8079" y1="-261.7192" x2="675.7905" y2="-266.5031" gradientTransform="matrix(-0.7071 0.7071 0.7071 0.7071 691.251 -286.8445)">
		<stop  offset="0" style="stop-color:#FF6A15"/>
		<stop  offset="1" style="stop-color:#BD4664"/>
	</linearGradient>
	<polygon opacity="0.5" fill="url(#SVGID_7_)" points="7.6,31.5 31.3,7.9 23.4,0 -0.3,23.6 	"/>
	
		<linearGradient id="SVGID_8_" gradientUnits="userSpaceOnUse" x1="-27.0781" y1="438.2992" x2="6.3543" y2="438.2992" gradientTransform="matrix(0.7071 0.7071 -0.7071 0.7071 332.749 -286.8445)">
		<stop  offset="0" style="stop-color:#FF6A15"/>
		<stop  offset="1" style="stop-color:#BD4664"/>
	</linearGradient>
	<polygon opacity="0.7" fill="url(#SVGID_8_)" points="23.4,31.5 -0.3,7.9 7.6,0 31.3,23.6 	"/>
</g>
</svg>
